<mxfile host="app.diagrams.net" modified="2022-09-13T04:11:38.795Z" agent="5.0 (Macintosh; Intel Mac OS X 10_15_7) AppleWebKit/537.36 (KHTML, like Gecko) Chrome/105.0.0.0 Safari/537.36" etag="h-kXw3wpqx8Bf6872fmx" version="20.2.3" type="github">
  <diagram id="JlQQKPMsajyUzStOTRm5" name="第 1 页">
    <mxGraphModel dx="1426" dy="794" grid="1" gridSize="10" guides="1" tooltips="1" connect="1" arrows="1" fold="1" page="1" pageScale="1" pageWidth="827" pageHeight="1169" math="0" shadow="0">
      <root>
        <mxCell id="0" />
        <mxCell id="1" parent="0" />
        <mxCell id="-L32iy5dYCYohP6XWthX-1" value="" style="verticalLabelPosition=bottom;sketch=0;html=1;fillColor=#282828;strokeColor=none;verticalAlign=top;pointerEvents=1;align=center;shape=mxgraph.cisco_safe.technology_icons.icon3;fontSize=18;" vertex="1" parent="1">
          <mxGeometry x="130" y="480" width="70" height="60" as="geometry" />
        </mxCell>
        <mxCell id="-L32iy5dYCYohP6XWthX-6" style="edgeStyle=orthogonalEdgeStyle;rounded=0;orthogonalLoop=1;jettySize=auto;html=1;entryX=0.914;entryY=0.5;entryDx=0;entryDy=0;entryPerimeter=0;endArrow=none;endFill=0;strokeWidth=2;fontSize=18;exitX=0;exitY=0.5;exitDx=0;exitDy=0;exitPerimeter=0;" edge="1" parent="1" source="-L32iy5dYCYohP6XWthX-4" target="-L32iy5dYCYohP6XWthX-1">
          <mxGeometry relative="1" as="geometry">
            <mxPoint x="330" y="510" as="sourcePoint" />
          </mxGeometry>
        </mxCell>
        <mxCell id="-L32iy5dYCYohP6XWthX-10" value="10.2.128.100" style="edgeLabel;html=1;align=center;verticalAlign=middle;resizable=0;points=[];fontSize=18;" vertex="1" connectable="0" parent="-L32iy5dYCYohP6XWthX-6">
          <mxGeometry x="0.1175" y="-3" relative="1" as="geometry">
            <mxPoint x="-48" y="-17" as="offset" />
          </mxGeometry>
        </mxCell>
        <mxCell id="-L32iy5dYCYohP6XWthX-15" value="10.2.128.1" style="edgeLabel;html=1;align=center;verticalAlign=middle;resizable=0;points=[];fontSize=18;" vertex="1" connectable="0" parent="-L32iy5dYCYohP6XWthX-6">
          <mxGeometry x="-0.4068" y="-4" relative="1" as="geometry">
            <mxPoint x="20" y="-16" as="offset" />
          </mxGeometry>
        </mxCell>
        <mxCell id="-L32iy5dYCYohP6XWthX-4" value="" style="strokeWidth=2;html=1;shape=mxgraph.flowchart.database;whiteSpace=wrap;fillStyle=auto;fillColor=#FFFFFF;fontSize=18;" vertex="1" parent="1">
          <mxGeometry x="430" y="490" width="70" height="40" as="geometry" />
        </mxCell>
        <mxCell id="-L32iy5dYCYohP6XWthX-8" style="edgeStyle=orthogonalEdgeStyle;rounded=0;orthogonalLoop=1;jettySize=auto;html=1;entryX=1;entryY=0.5;entryDx=0;entryDy=0;entryPerimeter=0;endArrow=none;endFill=0;strokeWidth=2;fontSize=18;" edge="1" parent="1" source="-L32iy5dYCYohP6XWthX-5" target="-L32iy5dYCYohP6XWthX-4">
          <mxGeometry relative="1" as="geometry" />
        </mxCell>
        <mxCell id="-L32iy5dYCYohP6XWthX-11" value="101.12.123.15" style="edgeLabel;html=1;align=center;verticalAlign=middle;resizable=0;points=[];fontSize=18;" vertex="1" connectable="0" parent="-L32iy5dYCYohP6XWthX-8">
          <mxGeometry y="-2" relative="1" as="geometry">
            <mxPoint x="-20" y="-18" as="offset" />
          </mxGeometry>
        </mxCell>
        <mxCell id="-L32iy5dYCYohP6XWthX-5" value="&lt;font style=&quot;font-size: 18px;&quot;&gt;Internet&lt;/font&gt;" style="ellipse;shape=cloud;whiteSpace=wrap;html=1;fillStyle=auto;fillColor=#FFFFFF;fontSize=18;" vertex="1" parent="1">
          <mxGeometry x="680" y="480" width="110" height="60" as="geometry" />
        </mxCell>
        <mxCell id="-L32iy5dYCYohP6XWthX-9" value="R" style="text;html=1;align=center;verticalAlign=middle;resizable=0;points=[];autosize=1;strokeColor=none;fillColor=none;fontSize=18;" vertex="1" parent="1">
          <mxGeometry x="445" y="450" width="40" height="40" as="geometry" />
        </mxCell>
        <mxCell id="-L32iy5dYCYohP6XWthX-14" style="edgeStyle=orthogonalEdgeStyle;rounded=0;orthogonalLoop=1;jettySize=auto;html=1;fontSize=18;endArrow=classic;endFill=1;strokeWidth=2;" edge="1" parent="1" source="-L32iy5dYCYohP6XWthX-13">
          <mxGeometry relative="1" as="geometry">
            <mxPoint x="655" y="510" as="targetPoint" />
          </mxGeometry>
        </mxCell>
        <mxCell id="-L32iy5dYCYohP6XWthX-13" value="MTU=1500B" style="text;html=1;align=center;verticalAlign=middle;resizable=0;points=[];autosize=1;strokeColor=none;fillColor=none;fontSize=18;" vertex="1" parent="1">
          <mxGeometry x="590" y="410" width="130" height="40" as="geometry" />
        </mxCell>
        <mxCell id="-L32iy5dYCYohP6XWthX-16" value="2011-47" style="text;html=1;align=center;verticalAlign=middle;resizable=0;points=[];autosize=1;strokeColor=none;fillColor=none;fontSize=18;" vertex="1" parent="1">
          <mxGeometry x="420" y="560" width="90" height="40" as="geometry" />
        </mxCell>
        <mxCell id="-L32iy5dYCYohP6XWthX-25" style="edgeStyle=orthogonalEdgeStyle;rounded=0;orthogonalLoop=1;jettySize=auto;html=1;fontSize=18;endArrow=classic;endFill=1;strokeWidth=2;" edge="1" parent="1" source="-L32iy5dYCYohP6XWthX-18" target="-L32iy5dYCYohP6XWthX-22">
          <mxGeometry relative="1" as="geometry" />
        </mxCell>
        <mxCell id="-L32iy5dYCYohP6XWthX-26" value="①" style="edgeLabel;html=1;align=center;verticalAlign=middle;resizable=0;points=[];fontSize=18;" vertex="1" connectable="0" parent="-L32iy5dYCYohP6XWthX-25">
          <mxGeometry x="-0.0364" y="3" relative="1" as="geometry">
            <mxPoint as="offset" />
          </mxGeometry>
        </mxCell>
        <mxCell id="-L32iy5dYCYohP6XWthX-18" value="用户1" style="shape=image;html=1;verticalAlign=top;verticalLabelPosition=bottom;labelBackgroundColor=#ffffff;imageAspect=0;aspect=fixed;image=https://cdn0.iconfinder.com/data/icons/electronics-line-style/64/CPU-128.png;fillStyle=auto;fontSize=18;fillColor=#FFFFFF;" vertex="1" parent="1">
          <mxGeometry x="90" y="660" width="90" height="90" as="geometry" />
        </mxCell>
        <mxCell id="-L32iy5dYCYohP6XWthX-20" value="用户2" style="shape=image;html=1;verticalAlign=top;verticalLabelPosition=bottom;labelBackgroundColor=#ffffff;imageAspect=0;aspect=fixed;image=https://cdn0.iconfinder.com/data/icons/electronics-line-style/64/CPU-128.png;fillStyle=auto;fontSize=18;fillColor=#FFFFFF;" vertex="1" parent="1">
          <mxGeometry x="600" y="660" width="90" height="90" as="geometry" />
        </mxCell>
        <mxCell id="-L32iy5dYCYohP6XWthX-27" style="edgeStyle=orthogonalEdgeStyle;rounded=0;orthogonalLoop=1;jettySize=auto;html=1;entryX=0;entryY=0.5;entryDx=0;entryDy=0;entryPerimeter=0;fontSize=18;endArrow=classic;endFill=1;strokeWidth=2;" edge="1" parent="1" source="-L32iy5dYCYohP6XWthX-22" target="-L32iy5dYCYohP6XWthX-23">
          <mxGeometry relative="1" as="geometry" />
        </mxCell>
        <mxCell id="-L32iy5dYCYohP6XWthX-28" value="②" style="edgeLabel;html=1;align=center;verticalAlign=middle;resizable=0;points=[];fontSize=18;" vertex="1" connectable="0" parent="-L32iy5dYCYohP6XWthX-27">
          <mxGeometry x="0.2188" y="-1" relative="1" as="geometry">
            <mxPoint x="-8" y="-1" as="offset" />
          </mxGeometry>
        </mxCell>
        <mxCell id="-L32iy5dYCYohP6XWthX-22" value="用户1的&lt;br&gt;邮件服务器" style="sketch=0;points=[[0.015,0.015,0],[0.985,0.015,0],[0.985,0.985,0],[0.015,0.985,0],[0.25,0,0],[0.5,0,0],[0.75,0,0],[1,0.25,0],[1,0.5,0],[1,0.75,0],[0.75,1,0],[0.5,1,0],[0.25,1,0],[0,0.75,0],[0,0.5,0],[0,0.25,0]];verticalLabelPosition=bottom;html=1;verticalAlign=top;aspect=fixed;align=center;pointerEvents=1;shape=mxgraph.cisco19.server;fillColor=#000000;strokeColor=none;fillStyle=auto;fontSize=18;" vertex="1" parent="1">
          <mxGeometry x="290" y="660" width="49.5" height="90" as="geometry" />
        </mxCell>
        <mxCell id="-L32iy5dYCYohP6XWthX-29" style="edgeStyle=orthogonalEdgeStyle;rounded=0;orthogonalLoop=1;jettySize=auto;html=1;fontSize=18;endArrow=classic;endFill=1;strokeWidth=2;" edge="1" parent="1" source="-L32iy5dYCYohP6XWthX-23" target="-L32iy5dYCYohP6XWthX-20">
          <mxGeometry relative="1" as="geometry" />
        </mxCell>
        <mxCell id="-L32iy5dYCYohP6XWthX-30" value="③" style="edgeLabel;html=1;align=center;verticalAlign=middle;resizable=0;points=[];fontSize=18;" vertex="1" connectable="0" parent="-L32iy5dYCYohP6XWthX-29">
          <mxGeometry x="-0.0957" relative="1" as="geometry">
            <mxPoint as="offset" />
          </mxGeometry>
        </mxCell>
        <mxCell id="-L32iy5dYCYohP6XWthX-23" value="用户2的&lt;br&gt;邮件服务器" style="sketch=0;points=[[0.015,0.015,0],[0.985,0.015,0],[0.985,0.985,0],[0.015,0.985,0],[0.25,0,0],[0.5,0,0],[0.75,0,0],[1,0.25,0],[1,0.5,0],[1,0.75,0],[0.75,1,0],[0.5,1,0],[0.25,1,0],[0,0.75,0],[0,0.5,0],[0,0.25,0]];verticalLabelPosition=bottom;html=1;verticalAlign=top;aspect=fixed;align=center;pointerEvents=1;shape=mxgraph.cisco19.server;fillColor=#000000;strokeColor=none;fillStyle=auto;fontSize=18;" vertex="1" parent="1">
          <mxGeometry x="435.5" y="660" width="49.5" height="90" as="geometry" />
        </mxCell>
        <mxCell id="-L32iy5dYCYohP6XWthX-31" value="2012-40" style="text;html=1;align=center;verticalAlign=middle;resizable=0;points=[];autosize=1;strokeColor=none;fillColor=none;fontSize=18;" vertex="1" parent="1">
          <mxGeometry x="315" y="820" width="90" height="40" as="geometry" />
        </mxCell>
      </root>
    </mxGraphModel>
  </diagram>
</mxfile>
